# xmcd CD database file
#
# Track frame offsets:
#	150
#	19173
#	36057
#	55326
#	76306
#	94341
#	134811
#	151501
#	175283
#	202201
#
# Disc length: 3177 seconds
#
# Revision: 0
# Processed by: cddbd v1.5PL3 Copyright (c) Steve Scherf et al.
# Submitted via: CDex 1.51
#
DISCID=850c670a
DTITLE=Chris Fitz Band - Just Gettin' Started
DYEAR=1998
DGENRE=Blues
TTITLE0=Just Gettin' Started
TTITLE1=Blue Seude Shoes
TTITLE2=Only God Knew
TTITLE3=She's So Fine
TTITLE4=Bad Connection
TTITLE5=Devil in Disguise
TTITLE6=She's Insatiable
TTITLE7=Change My Ways
TTITLE8=For All My Sins
TTITLE9=Jesse James (Part II)
EXTD=YEAR: 1998
EXTT0=
EXTT1=
EXTT2=
EXTT3=
EXTT4=
EXTT5=
EXTT6=
EXTT7=
EXTT8=
EXTT9=
PLAYORDER=
